<?xml version="1.0" encoding="UTF-8" standalone="no"?> <!-- Created with Vectornator for iOS (http://vectornator.io/) --><!DOCTYPE svg PUBLIC "-//W3C//DTD SVG 1.1//EN" "http://www.w3.org/Graphics/SVG/1.1/DTD/svg11.dtd">
<svg style="fill-rule:evenodd;clip-rule:evenodd;stroke-linecap:round;stroke-linejoin:round;" xmlns:vectornator="http://vectornator.io" xmlns:xlink="http://www.w3.org/1999/xlink" xmlns="http://www.w3.org/2000/svg" xml:space="preserve" version="1.1" viewBox="0 0 1214 1300">
<metadata>
<vectornator:setting key="RulersVisible" value="1"/>
<vectornator:setting key="Units" value="Points"/>
<vectornator:setting key="DynamicGuides" value="1"/>
<vectornator:setting key="GuidesVisible" value="1"/>
<vectornator:setting key="CMYKEnabledKey" value="0"/>
<vectornator:setting key="SnapToGuides" value="1"/>
<vectornator:setting key="GridSpacing" value="36"/>
</metadata>
<defs/>
<g id="Layer 1" vectornator:layerName="Layer 1" visibility="hidden">
<path d="M691+124C820.032+107.934+892.132+227.329+936+337C943.721+356.303+958.983+371.958+967+392C984.507+435.767+988.538+482.572+994+529C1004.63+619.337+1010.02+734.889+990+825C943.259+1035.33+761.599+1190.79+550+1219C500.114+1225.65+448.564+1226.91+399+1217C307.595+1198.72+149.968+1123.42+115+1036C89.842+973.105+109.018+902.954+133+843C194.45+689.374+370.45+628.17+462+500C556.091+368.273+473.955+151.025+691+124Z" fill-rule="evenodd" fill="#edcc96" opacity="1"/>
<path d="M937+429C947.752+457.672+951.23+489.152+957+518C966.419+565.095+964+621.954+964+670C964+682.077+957.9+786.703+955+807C948.827+850.208+930.146+885.446+911+927C904.655+940.772+883+972+882+972C875.839+990.484+796.297+1062.5+776+1077C735.985+1105.58+647.043+1146.96+552.088+1156.89C473.135+1165.15+382.589+1144.32+381+1144C381+1143.46+330.637+1136.88+290.81+1116.07C274.787+1107.7+235.403+1088.19+210.862+1056.97C182.809+1021.29+170.415+973.87+170+972C162.087+936.389+166.234+892.415+180+858C215.979+768.052+279.567+694.881+355+641C366.066+633.096+437.718+571.141+440+570C444.118+567.941+483.7+529.662+503.221+486.052C528.42+429.756+534.311+364.82+535+360C537.198+344.613+550.513+271.771+581.831+231.754C616.186+187.857+669.802+177.119+696.932+174.045C716.888+171.784+763.962+176.461+795.72+198.752C812.977+210.865+846.752+239.674+866.764+269.065C875.721+282.22+890.788+315.723+904.696+348.746C920.598+386.503+934.987+423.631+937+429Z" fill-rule="evenodd" fill="#e6bb33" opacity="1"/>
<path stroke="#fffefe" stroke-opacity="0" stroke-width="1" d="M653.286+384.779C644.24+357.652+665.349+326.479+700.435+315.151C735.521+303.824+771.298+316.632+780.345+343.759C789.391+370.886+768.282+402.06+733.196+413.387C698.11+424.715+662.333+411.906+653.286+384.779Z" fill="#ede0ca" stroke-linecap="round" opacity="1" stroke-linejoin="round"/>
<path vectornator:shadowColor="#ec9c13" vectornator:shadowOpacity="1" vectornator:shadowRadius="7" d="M271.713+852.668C271.713+852.668+277.429+902.277+303.75+920.4C330.07+938.522+370.841+940.048+370.841+940.048C370.841+940.048+327.846+941.955+304.983+967.522C282.119+993.09+279.387+1027.43+279.387+1027.43C279.387+1027.43+275.28+986.738+255.997+968.612C236.714+950.486+202.257+954.926+202.257+954.926C202.257+954.926+241.13+943.375+256.955+917.81C272.781+892.246+271.713+852.668+271.713+852.668Z" vectornator:shadowOffset="10" fill="#ffa40c" opacity="1" vectornator:shadowAngle="2.15667"/>
<path vectornator:shadowColor="#ec9c13" vectornator:shadowOpacity="1" vectornator:shadowRadius="7" d="M680.503+840.48C680.503+840.48+688.972+913.984+727.97+940.835C766.968+967.686+827.375+969.947+827.375+969.947C827.375+969.947+763.672+972.772+729.797+1010.65C695.922+1048.54+691.874+1099.41+691.874+1099.41C691.874+1099.41+685.788+1039.12+657.218+1012.27C628.648+985.413+577.595+991.991+577.595+991.991C577.595+991.991+635.19+974.876+658.638+936.999C682.085+899.121+680.503+840.48+680.503+840.48Z" vectornator:shadowOffset="10" fill="#ffa40c" opacity="1" vectornator:shadowAngle="1.5708"/>
<path vectornator:shadowColor="#ec9c13" vectornator:shadowOpacity="1" vectornator:shadowRadius="7" d="M623.355+458.709C623.355+458.709+628.145+500.285+650.204+515.473C672.262+530.661+706.43+531.939+706.43+531.939C706.43+531.939+670.398+533.537+651.237+554.964C632.076+576.392+629.787+605.169+629.787+605.169C629.787+605.169+626.344+571.068+610.184+555.878C594.024+540.687+565.147+544.408+565.147+544.408C565.147+544.408+597.725+534.728+610.987+513.303C624.25+491.878+623.355+458.709+623.355+458.709Z" vectornator:shadowOffset="10" fill="#ffa20c" opacity="1" vectornator:shadowAngle="1.88074"/>
</g>
<g id="Layer 1 copy" vectornator:layerName="Layer 1 copy">
<path d="M714.531+122.531C706.905+122.513+699.064+122.996+691+124C473.955+151.025+556.091+368.273+462+500C370.45+628.17+194.45+689.374+133+843C109.018+902.954+89.842+973.105+115+1036C149.968+1123.42+307.595+1198.72+399+1217C448.564+1226.91+500.114+1225.65+550+1219C761.599+1190.79+943.259+1035.33+990+825C1010.02+734.889+1004.63+619.337+994+529C988.538+482.572+984.507+435.767+967+392C958.983+371.958+943.721+356.303+936+337C894.874+234.183+828.932+122.812+714.531+122.531ZM726.438+311.031C751.726+311.126+773.559+323.405+780.344+343.75C789.39+370.877+768.273+402.048+733.188+413.375C698.101+424.702+662.328+411.908+653.281+384.781C644.235+357.654+665.351+326.484+700.438+315.156C709.209+312.324+718.008+311+726.438+311.031Z" opacity="1" fill="#ffffff"/>
</g>
</svg>
